#N canvas -8 -8 1366 725 10;
#X obj 209 -36 hidin;
#X obj 207 -91 tgl 15 0 empty empty empty 17 7 0 10 -262144 -1 -1 1
1;
#X floatatom 138 -90 5 0 0 0 - - -, f 5;
#X msg 138 -60 open \$1;
#X obj 138 -125 hradio 15 1 0 8 empty empty empty 0 -8 0 10 -262144
-1 -1 1;
#X floatatom 719 321 5 0 0 0 - - -, f 5;
#X floatatom 862 320 5 0 0 0 - - -, f 5;
#X obj 852 124 moses 1;
#X msg 818 181 64 \$1;
#X obj 936 127 moses 1;
#X obj 1010 124 moses 1;
#X obj 1086 124 moses 1;
#X msg 929 181 71 \$1;
#X msg 1026 181 74 \$1;
#X msg 1132 181 66 \$1;
#X floatatom 882 70 5 0 0 0 - - -, f 5;
#X floatatom 936 92 5 0 0 0 - - -, f 5;
#X floatatom 990 92 5 0 0 0 - - -, f 5;
#X floatatom 1050 92 5 0 0 0 - - -, f 5;
#X msg 876 181 64 127;
#X msg 972 181 71 127;
#X msg 1079 181 74 127;
#X msg 1184 181 66 127;
#X obj 919 3 route 7 8 9 10;
#X obj 802 239 print A;
#X obj 918 239 print B;
#X obj 1034 239 print X;
#X obj 1157 239 print Y;
#X obj 719 356 / 65535;
#X obj 1103 -39 moses 1;
#X msg 1103 -3 58 \$1;
#X msg 1163 -5 58 127;
#X obj 1089 71 print Start;
#X obj 1196 71 noteout 7;
#X obj 857 239 noteout 7;
#X obj 970 239 noteout 7;
#X obj 1086 239 noteout 7;
#X obj 1209 239 noteout 7;
#X text 376 456 Deadzone = 0.2;
#X msg 272 -78 print;
#X obj 707 637 * 127;
#X obj 708 710 abs;
#X obj 708 750 i;
#X obj 744 808 print xfader;
#X obj 862 378 / 65535;
#X obj 863 420 * 127;
#X obj 863 471 abs;
#X obj 863 541 i;
#X floatatom 936 649 5 0 0 0 - - -, f 5;
#X obj 937 586 print rotaryKnob;
#X floatatom 1320 -67 5 0 0 0 - - -, f 5;
#X obj 1319 -110 route 13;
#X obj 1102 -85 route 14;
#X obj 1320 -20 moses 1;
#X msg 1304 17 57 \$1;
#X msg 1356 28 57 127;
#X obj 1275 63 print Back;
#X obj 1356 64 noteout 7;
#X msg 73 267 1 127;
#X msg 172 272 2 127;
#X obj 18 220 moses 1;
#X obj 128 222 moses 1;
#X obj 225 233 moses 1;
#X msg 280 278 3 127;
#X msg 389 273 4 127;
#X obj 327 233 moses 1;
#X msg 18 266 1 \$1;
#X msg 127 266 2 \$1;
#X msg 235 272 3 \$1;
#X msg 344 273 4 \$1;
#X obj 165 27 route 6;
#X obj 154 415 noteout 7;
#X floatatom 165 82 5 0 0 0 - - -, f 5;
#X obj 245 413 print DPAD;
#X obj 24 160 == 1;
#X obj 133 156 == 3;
#X obj 199 154 == 5;
#X obj 280 154 == 7;
#X obj 593 62 route 1 2 3 4;
#X floatatom 500 301 5 0 0 0 - - -, f 5;
#X obj 559 536 ctlout 1 13;
#X msg 473 447 1;
#X msg 575 447 127;
#X obj 453 537 print Platter;
#X obj 473 391 spigot;
#X obj 573 383 spigot;
#X obj 502 258 spigot;
#X obj 849 648 ctlout 2 13;
#X obj 644 806 ctlout 3 13;
#X obj 707 671 - 127;
#X obj 647 499 spigot;
#X obj 747 491 spigot;
#X obj 692 425 < 32760;
#X obj 776 407 > 32774;
#X obj 508 359 < 32765;
#X obj 606 344 > 32769;
#X connect 0 0 23 0;
#X connect 0 0 51 0;
#X connect 0 0 52 0;
#X connect 0 0 70 0;
#X connect 0 0 78 0;
#X connect 1 0 0 0;
#X connect 2 0 3 0;
#X connect 3 0 0 0;
#X connect 4 0 2 0;
#X connect 5 0 28 0;
#X connect 6 0 44 0;
#X connect 7 0 8 0;
#X connect 7 1 19 0;
#X connect 8 0 24 0;
#X connect 8 0 34 0;
#X connect 9 0 12 0;
#X connect 9 1 20 0;
#X connect 10 0 13 0;
#X connect 10 1 21 0;
#X connect 11 0 14 0;
#X connect 11 1 22 0;
#X connect 12 0 25 0;
#X connect 12 0 35 0;
#X connect 13 0 26 0;
#X connect 13 0 36 0;
#X connect 14 0 27 0;
#X connect 14 0 37 0;
#X connect 15 0 7 0;
#X connect 16 0 9 0;
#X connect 16 0 86 1;
#X connect 17 0 10 0;
#X connect 18 0 11 0;
#X connect 19 0 24 0;
#X connect 19 0 34 0;
#X connect 20 0 25 0;
#X connect 20 0 35 0;
#X connect 21 0 26 0;
#X connect 21 0 36 0;
#X connect 22 0 27 0;
#X connect 22 0 37 0;
#X connect 23 0 15 0;
#X connect 23 1 16 0;
#X connect 23 2 17 0;
#X connect 23 3 18 0;
#X connect 28 0 90 0;
#X connect 28 0 91 0;
#X connect 28 0 92 0;
#X connect 28 0 93 0;
#X connect 29 0 30 0;
#X connect 29 1 31 0;
#X connect 30 0 32 0;
#X connect 30 0 33 0;
#X connect 31 0 32 0;
#X connect 31 0 33 0;
#X connect 39 0 0 0;
#X connect 40 0 89 0;
#X connect 41 0 42 0;
#X connect 42 0 43 0;
#X connect 42 0 88 0;
#X connect 44 0 45 0;
#X connect 45 0 46 0;
#X connect 46 0 47 0;
#X connect 47 0 48 0;
#X connect 47 0 49 0;
#X connect 47 0 87 0;
#X connect 50 0 53 0;
#X connect 51 0 50 0;
#X connect 52 0 29 0;
#X connect 53 0 54 0;
#X connect 53 1 55 0;
#X connect 54 0 56 0;
#X connect 54 0 57 0;
#X connect 55 0 56 0;
#X connect 55 0 57 0;
#X connect 58 0 71 0;
#X connect 58 0 73 0;
#X connect 59 0 71 0;
#X connect 59 0 73 0;
#X connect 60 0 66 0;
#X connect 60 1 58 0;
#X connect 61 0 67 0;
#X connect 61 1 59 0;
#X connect 62 0 68 0;
#X connect 62 1 63 0;
#X connect 63 0 71 0;
#X connect 63 0 73 0;
#X connect 64 0 71 0;
#X connect 64 0 73 0;
#X connect 65 0 69 0;
#X connect 65 1 64 0;
#X connect 66 0 71 0;
#X connect 66 0 73 0;
#X connect 67 0 71 0;
#X connect 67 0 73 0;
#X connect 68 0 71 0;
#X connect 68 0 73 0;
#X connect 69 0 71 0;
#X connect 69 0 73 0;
#X connect 70 0 72 0;
#X connect 72 0 77 0;
#X connect 72 0 74 0;
#X connect 72 0 75 0;
#X connect 72 0 76 0;
#X connect 74 0 60 0;
#X connect 75 0 61 0;
#X connect 76 0 62 0;
#X connect 77 0 65 0;
#X connect 78 0 86 0;
#X connect 78 2 5 0;
#X connect 78 3 6 0;
#X connect 79 0 84 0;
#X connect 79 0 85 0;
#X connect 79 0 94 0;
#X connect 79 0 95 0;
#X connect 81 0 83 0;
#X connect 81 0 80 0;
#X connect 82 0 83 0;
#X connect 82 0 80 0;
#X connect 84 0 81 0;
#X connect 85 0 82 0;
#X connect 86 0 79 0;
#X connect 89 0 41 0;
#X connect 90 0 40 0;
#X connect 91 0 40 0;
#X connect 92 0 90 1;
#X connect 93 0 91 1;
#X connect 94 0 84 1;
#X connect 95 0 85 1;
